<svg xmlns="http://www.w3.org/2000/svg" xmlns:xlink="http://www.w3.org/1999/xlink" width="458pt" height="333pt" viewBox="0.00 0.00 458.00 333.00">
<g id="graph0" class="graph" transform="scale(1 1) rotate(0) translate(4 328.8)">
<title>midsched_flow</title>
<polygon fill="white" stroke="none" points="-4,4 -4,-328.8 453.98,-328.8 453.98,4 -4,4"/>
<!-- running -->
<g id="node1" class="node">
<title>running</title>
<path fill="#90ee90" stroke="black" d="M129.92,-324.8C129.92,-324.8 73.37,-324.8 73.37,-324.8 67.37,-324.8 61.37,-318.8 61.37,-312.8 61.37,-312.8 61.37,-295.2 61.37,-295.2 61.37,-289.2 67.37,-283.2 73.37,-283.2 73.37,-283.2 129.92,-283.2 129.92,-283.2 135.92,-283.2 141.92,-289.2 141.92,-295.2 141.92,-295.2 141.92,-312.8 141.92,-312.8 141.92,-318.8 135.92,-324.8 129.92,-324.8"/>
<text xml:space="preserve" text-anchor="middle" x="101.64" y="-308.2" font-family="Microsoft YaHei" font-size="14.00">RUNNING</text>
<text xml:space="preserve" text-anchor="middle" x="101.64" y="-291.4" font-family="Microsoft YaHei" font-size="14.00">运行态</text>
</g>
<!-- ready -->
<g id="node2" class="node">
<title>ready</title>
<path fill="#87ceeb" stroke="black" d="M121.75,-136C121.75,-136 81.53,-136 81.53,-136 75.53,-136 69.53,-130 69.53,-124 69.53,-124 69.53,-106.4 69.53,-106.4 69.53,-100.4 75.53,-94.4 81.53,-94.4 81.53,-94.4 121.75,-94.4 121.75,-94.4 127.75,-94.4 133.75,-100.4 133.75,-106.4 133.75,-106.4 133.75,-124 133.75,-124 133.75,-130 127.75,-136 121.75,-136"/>
<text xml:space="preserve" text-anchor="middle" x="101.64" y="-119.4" font-family="Microsoft YaHei" font-size="14.00">READY</text>
<text xml:space="preserve" text-anchor="middle" x="101.64" y="-102.6" font-family="Microsoft YaHei" font-size="14.00">就绪态</text>
</g>
<!-- running&#45;&gt;ready -->
<g id="edge1" class="edge">
<title>running-&gt;ready</title>
<path fill="none" stroke="black" d="M71.51,-282.97C55.04,-270.13 36.2,-251.87 27.14,-230.4 19.96,-213.36 19.96,-205.84 27.14,-188.8 34.64,-171.02 48.85,-155.44 62.87,-143.32"/>
<polygon fill="black" stroke="black" points="64.83,-146.24 70.34,-137.19 60.39,-140.82 64.83,-146.24"/>
<text xml:space="preserve" text-anchor="middle" x="53.39" y="-205.4" font-family="Times,serif" font-size="14.00">时间片用完</text>
</g>
<!-- blocked -->
<g id="node3" class="node">
<title>blocked</title>
<path fill="#ffb6c1" stroke="black" d="M231.7,-230.4C231.7,-230.4 173.59,-230.4 173.59,-230.4 167.59,-230.4 161.59,-224.4 161.59,-218.4 161.59,-218.4 161.59,-200.8 161.59,-200.8 161.59,-194.8 167.59,-188.8 173.59,-188.8 173.59,-188.8 231.7,-188.8 231.7,-188.8 237.7,-188.8 243.7,-194.8 243.7,-200.8 243.7,-200.8 243.7,-218.4 243.7,-218.4 243.7,-224.4 237.7,-230.4 231.7,-230.4"/>
<text xml:space="preserve" text-anchor="middle" x="202.64" y="-213.8" font-family="Microsoft YaHei" font-size="14.00">BLOCKED</text>
<text xml:space="preserve" text-anchor="middle" x="202.64" y="-197" font-family="Microsoft YaHei" font-size="14.00">阻塞态</text>
</g>
<!-- running&#45;&gt;blocked -->
<g id="edge2" class="edge">
<title>running-&gt;blocked</title>
<path fill="none" stroke="black" d="M123.56,-282.95C137.85,-269.87 156.7,-252.63 172.41,-238.26"/>
<polygon fill="black" stroke="black" points="174.64,-240.96 179.65,-231.63 169.91,-235.8 174.64,-240.96"/>
<text xml:space="preserve" text-anchor="middle" x="181.02" y="-252.6" font-family="Times,serif" font-size="14.00">等待I/O</text>
</g>
<!-- ready&#45;&gt;running -->
<g id="edge3" class="edge">
<title>ready-&gt;running</title>
<path fill="none" stroke="black" d="M101.64,-136.33C101.64,-168.85 101.64,-233.18 101.64,-271.71"/>
<polygon fill="black" stroke="black" points="98.14,-271.5 101.64,-281.5 105.14,-271.5 98.14,-271.5"/>
<text xml:space="preserve" text-anchor="middle" x="122.64" y="-205.4" font-family="Times,serif" font-size="14.00">调度选中</text>
</g>
<!-- suspended_ready -->
<g id="node4" class="node">
<title>suspended_ready</title>
<path fill="#dda0dd" stroke="black" d="M214.7,-41.6C214.7,-41.6 86.58,-41.6 86.58,-41.6 80.58,-41.6 74.58,-35.6 74.58,-29.6 74.58,-29.6 74.58,-12 74.58,-12 74.58,-6 80.58,0 86.58,0 86.58,0 214.7,0 214.7,0 220.7,0 226.7,-6 226.7,-12 226.7,-12 226.7,-29.6 226.7,-29.6 226.7,-35.6 220.7,-41.6 214.7,-41.6"/>
<text xml:space="preserve" text-anchor="middle" x="150.64" y="-25" font-family="Microsoft YaHei" font-size="14.00">SUSPENDED_READY</text>
<text xml:space="preserve" text-anchor="middle" x="150.64" y="-8.2" font-family="Microsoft YaHei" font-size="14.00">挂起就绪</text>
</g>
<!-- ready&#45;&gt;suspended_ready -->
<g id="edge5" class="edge">
<title>ready-&gt;suspended_ready</title>
<path fill="none" stroke="red" stroke-width="2" d="M117.42,-93.98C121.36,-88.45 125.38,-82.34 128.64,-76.4 132.72,-68.97 136.46,-60.62 139.66,-52.74"/>
<polygon fill="red" stroke="red" stroke-width="2" points="142.36,-55.45 142.71,-44.86 135.83,-52.92 142.36,-55.45"/>
<text xml:space="preserve" text-anchor="middle" x="199.03" y="-63.8" font-family="Times,serif" font-size="14.00">midsched(SUSPEND)</text>
</g>
<!-- blocked&#45;&gt;ready -->
<g id="edge4" class="edge">
<title>blocked-&gt;ready</title>
<path fill="none" stroke="black" d="M173.77,-188.5C166.45,-183.02 158.75,-176.9 151.98,-170.8 143.07,-162.77 133.99,-153.37 126.04,-144.66"/>
<polygon fill="black" stroke="black" points="128.8,-142.49 119.53,-137.37 123.59,-147.16 128.8,-142.49"/>
<text xml:space="preserve" text-anchor="middle" x="171.81" y="-158.2" font-family="Times,serif" font-size="14.00">I/O完成</text>
</g>
<!-- suspended_blocked -->
<g id="node5" class="node">
<title>suspended_blocked</title>
<path fill="#d8bfd8" stroke="black" d="M371.65,-136C371.65,-136 225.63,-136 225.63,-136 219.63,-136 213.63,-130 213.63,-124 213.63,-124 213.63,-106.4 213.63,-106.4 213.63,-100.4 219.63,-94.4 225.63,-94.4 225.63,-94.4 371.65,-94.4 371.65,-94.4 377.65,-94.4 383.65,-100.4 383.65,-106.4 383.65,-106.4 383.65,-124 383.65,-124 383.65,-130 377.65,-136 371.65,-136"/>
<text xml:space="preserve" text-anchor="middle" x="298.64" y="-119.4" font-family="Microsoft YaHei" font-size="14.00">SUSPENDED_BLOCKED</text>
<text xml:space="preserve" text-anchor="middle" x="298.64" y="-102.6" font-family="Microsoft YaHei" font-size="14.00">挂起阻塞</text>
</g>
<!-- blocked&#45;&gt;suspended_blocked -->
<g id="edge6" class="edge">
<title>blocked-&gt;suspended_blocked</title>
<path fill="none" stroke="red" stroke-width="2" d="M196.84,-188.55C194.87,-177.45 194.62,-163.94 201.42,-154 204.18,-149.96 207.44,-146.36 211.06,-143.14"/>
<polygon fill="red" stroke="red" stroke-width="2" points="211.83,-146.95 217.7,-138.13 207.61,-141.36 211.83,-146.95"/>
<text xml:space="preserve" text-anchor="middle" x="264.03" y="-158.2" font-family="Times,serif" font-size="14.00">midsched(SUSPEND)</text>
</g>
<!-- suspended_ready&#45;&gt;ready -->
<g id="edge7" class="edge">
<title>suspended_ready-&gt;ready</title>
<path fill="none" stroke="blue" stroke-width="2" d="M74.27,-32.91C43.9,-39.03 14,-47.81 4.88,-59.6 -13.1,-82.83 24.55,-97.75 58.01,-106.02"/>
<polygon fill="blue" stroke="blue" stroke-width="2" points="55.63,-109.06 66.16,-107.89 57.2,-102.24 55.63,-109.06"/>
<text xml:space="preserve" text-anchor="middle" x="64.76" y="-63.8" font-family="Times,serif" font-size="14.00">midsched(RESUME)</text>
</g>
<!-- suspended_blocked&#45;&gt;blocked -->
<g id="edge8" class="edge">
<title>suspended_blocked-&gt;blocked</title>
<path fill="none" stroke="blue" stroke-width="2" d="M319.57,-136.31C328.18,-147.04 334.5,-160.18 326.64,-170.8 310.25,-192.94 281.19,-202.55 255.32,-206.55"/>
<polygon fill="blue" stroke="blue" stroke-width="2" points="256.58,-202.86 247.1,-207.59 257.46,-209.8 256.58,-202.86"/>
<text xml:space="preserve" text-anchor="middle" x="390.1" y="-158.2" font-family="Times,serif" font-size="14.00">midsched(RESUME)</text>
</g>
<!-- suspended_blocked&#45;&gt;suspended_ready -->
<g id="edge9" class="edge">
<title>suspended_blocked-&gt;suspended_ready</title>
<path fill="none" stroke="black" d="M290.71,-94.06C285.24,-82.51 276.91,-68.57 265.64,-59.6 257.22,-52.9 247.57,-47.36 237.51,-42.8"/>
<polygon fill="black" stroke="black" points="238.9,-39.58 228.32,-38.97 236.2,-46.04 238.9,-39.58"/>
<text xml:space="preserve" text-anchor="middle" x="300.48" y="-63.8" font-family="Times,serif" font-size="14.00">I/O完成</text>
</g>
</g>
</svg>