<svg xmlns="http://www.w3.org/2000/svg" xmlns:xlink="http://www.w3.org/1999/xlink" width="282pt" height="522pt" viewBox="0.00 0.00 282.00 522.00">
<g id="graph0" class="graph" transform="scale(1 1) rotate(0) translate(4 517.8)">
<title>syscall_arch</title>
<polygon fill="white" stroke="none" points="-4,4 -4,-517.8 278,-517.8 278,4 -4,4"/>
<g id="clust1" class="cluster">
<title>cluster_user</title>
<polygon fill="#e8f4fc" stroke="blue" stroke-dasharray="5,2" points="82,-329 82,-505.8 200,-505.8 200,-329 82,-329"/>
<text xml:space="preserve" text-anchor="middle" x="141" y="-489.2" font-family="Times,serif" font-size="14.00">用户态</text>
</g>
<g id="clust2" class="cluster">
<title>cluster_kernel</title>
<polygon fill="#fce8e8" stroke="red" stroke-dasharray="5,2" points="8,-8 8,-294.2 266,-294.2 266,-8 8,-8"/>
<text xml:space="preserve" text-anchor="middle" x="137" y="-277.6" font-family="Times,serif" font-size="14.00">内核态</text>
</g>
<g id="clust3" class="cluster">
<title>cluster_handlers</title>
<path fill="#fff0f0" stroke="red" d="M28,-16C28,-16 246,-16 246,-16 252,-16 258,-22 258,-28 258,-28 258,-86.4 258,-86.4 258,-92.4 252,-98.4 246,-98.4 246,-98.4 28,-98.4 28,-98.4 22,-98.4 16,-92.4 16,-86.4 16,-86.4 16,-28 16,-28 16,-22 22,-16 28,-16"/>
<text xml:space="preserve" text-anchor="middle" x="137" y="-81.8" font-family="Times,serif" font-size="14.00">系统调用处理</text>
</g>
<!-- app -->
<g id="node1" class="node">
<title>app</title>
<polygon fill="#b3d9ff" stroke="black" points="184.96,-473 97.04,-473 97.04,-431.4 184.96,-431.4 184.96,-473"/>
<text xml:space="preserve" text-anchor="middle" x="141" y="-456.4" font-family="SimHei" font-size="14.00">用户程序</text>
<text xml:space="preserve" text-anchor="middle" x="141" y="-439.6" font-family="SimHei" font-size="14.00">(cat, ls, sh...)</text>
</g>
<!-- usys -->
<g id="node2" class="node">
<title>usys</title>
<polygon fill="#cce5ff" stroke="black" points="191.55,-378.6 90.45,-378.6 90.45,-337 191.55,-337 191.55,-378.6"/>
<text xml:space="preserve" text-anchor="middle" x="141" y="-362" font-family="SimHei" font-size="14.00">usys.S</text>
<text xml:space="preserve" text-anchor="middle" x="141" y="-345.2" font-family="SimHei" font-size="14.00">(ecall wrapper)</text>
</g>
<!-- app&#45;&gt;usys -->
<g id="edge1" class="edge">
<title>app-&gt;usys</title>
<path fill="none" stroke="black" d="M141,-431.15C141,-419.16 141,-403.67 141,-390.1"/>
<polygon fill="black" stroke="black" points="144.5,-390.32 141,-380.32 137.5,-390.32 144.5,-390.32"/>
<text xml:space="preserve" text-anchor="middle" x="151.5" y="-400.8" font-family="Times,serif" font-size="14.00">调用</text>
</g>
<!-- trap -->
<g id="node3" class="node">
<title>trap</title>
<polygon fill="#ffcccc" stroke="black" points="176.21,-261.4 105.79,-261.4 105.79,-219.8 176.21,-219.8 176.21,-261.4"/>
<text xml:space="preserve" text-anchor="middle" x="141" y="-244.8" font-family="SimHei" font-size="14.00">trap.c</text>
<text xml:space="preserve" text-anchor="middle" x="141" y="-228" font-family="SimHei" font-size="14.00">(usertrap)</text>
</g>
<!-- usys&#45;&gt;trap -->
<g id="edge2" class="edge">
<title>usys-&gt;trap</title>
<path fill="none" stroke="red" stroke-width="2" d="M141,-336.73C141,-319.25 141,-293.59 141,-273.32"/>
<polygon fill="red" stroke="red" stroke-width="2" points="144.5,-274.85 141,-264.85 137.5,-274.85 144.5,-274.85"/>
<text xml:space="preserve" text-anchor="middle" x="154.21" y="-306.4" font-family="Times,serif" font-size="14.00">ecall</text>
</g>
<!-- syscall -->
<g id="node4" class="node">
<title>syscall</title>
<polygon fill="#ffb3b3" stroke="black" points="183.21,-167 98.79,-167 98.79,-125.4 183.21,-125.4 183.21,-167"/>
<text xml:space="preserve" text-anchor="middle" x="141" y="-150.4" font-family="SimHei" font-size="14.00">syscall.c</text>
<text xml:space="preserve" text-anchor="middle" x="141" y="-133.6" font-family="SimHei" font-size="14.00">(syscall分发)</text>
</g>
<!-- trap&#45;&gt;syscall -->
<g id="edge3" class="edge">
<title>trap-&gt;syscall</title>
<path fill="none" stroke="black" d="M141,-219.55C141,-207.56 141,-192.07 141,-178.5"/>
<polygon fill="black" stroke="black" points="144.5,-178.72 141,-168.72 137.5,-178.72 144.5,-178.72"/>
<text xml:space="preserve" text-anchor="middle" x="167.3" y="-189.2" font-family="Times,serif" font-size="14.00">a7=调用号</text>
</g>
<!-- sysproc -->
<g id="node5" class="node">
<title>sysproc</title>
<polygon fill="#ffd9d9" stroke="black" points="92.24,-65.6 23.76,-65.6 23.76,-24 92.24,-24 92.24,-65.6"/>
<text xml:space="preserve" text-anchor="middle" x="58" y="-49" font-family="SimHei" font-size="14.00">sysproc.c</text>
<text xml:space="preserve" text-anchor="middle" x="58" y="-32.2" font-family="SimHei" font-size="14.00">进程/调度</text>
</g>
<!-- syscall&#45;&gt;sysproc -->
<g id="edge4" class="edge">
<title>syscall-&gt;sysproc</title>
<path fill="none" stroke="black" d="M123.77,-125.24C116.68,-116.97 108.4,-107.26 101,-98.4 94.58,-90.72 87.7,-82.36 81.36,-74.61"/>
<polygon fill="black" stroke="black" points="84.22,-72.58 75.19,-67.04 78.8,-77 84.22,-72.58"/>
</g>
<!-- sysfile -->
<g id="node6" class="node">
<title>sysfile</title>
<polygon fill="#ffd9d9" stroke="black" points="172.13,-65.6 109.87,-65.6 109.87,-24 172.13,-24 172.13,-65.6"/>
<text xml:space="preserve" text-anchor="middle" x="141" y="-49" font-family="SimHei" font-size="14.00">sysfile.c</text>
<text xml:space="preserve" text-anchor="middle" x="141" y="-32.2" font-family="SimHei" font-size="14.00">文件系统</text>
</g>
<!-- syscall&#45;&gt;sysfile -->
<g id="edge5" class="edge">
<title>syscall-&gt;sysfile</title>
<path fill="none" stroke="black" d="M141,-125.08C141,-111.34 141,-92.86 141,-77.19"/>
<polygon fill="black" stroke="black" points="144.5,-77.4 141,-67.4 137.5,-77.4 144.5,-77.4"/>
</g>
<!-- sysnet -->
<g id="node7" class="node">
<title>sysnet</title>
<polygon fill="#ffd9d9" stroke="black" points="250.36,-65.6 189.64,-65.6 189.64,-24 250.36,-24 250.36,-65.6"/>
<text xml:space="preserve" text-anchor="middle" x="220" y="-49" font-family="SimHei" font-size="14.00">sysnet.c</text>
<text xml:space="preserve" text-anchor="middle" x="220" y="-32.2" font-family="SimHei" font-size="14.00">网络</text>
</g>
<!-- syscall&#45;&gt;sysnet -->
<g id="edge6" class="edge">
<title>syscall-&gt;sysnet</title>
<path fill="none" stroke="black" d="M158.84,-124.95C165.87,-116.81 173.94,-107.26 181,-98.4 186.88,-91.02 193.04,-82.9 198.69,-75.29"/>
<polygon fill="black" stroke="black" points="201.5,-77.38 204.61,-67.25 195.86,-73.23 201.5,-77.38"/>
</g>
</g>
</svg>